<svg width="484" height="485" viewBox="0 0 484 485" fill="none" xmlns="http://www.w3.org/2000/svg">
<path d="M401.5 148.5C403.1 143.7 408.167 142.5 410 142.5C412 142 419.5 145.5 418.5 148.5V220.5C419.167 222.167 421.6 225.5 426 225.5C430.4 225.5 432.5 222.167 433 220.5V148.5C434 146.5 436.2 142.5 441 142.5C445.8 142.5 448.667 146.5 449 148.5V218C454.5 227.5 456.829 225.776 457.5 226C459 225.5 464.5 223 464.5 220.5C464.333 199.833 464.1 157.1 464.5 151.5C465 144.5 469 142.5 472.5 142.5C477 142.5 480.167 146.167 481 148.5V251C480.5 251.833 479.4 254.2 479 257C478.6 259.8 465.167 275.167 458.5 282.5C458 292.833 457.1 314.6 457.5 319C458 324.5 450 329 442 331C435.5 332.5 428.167 324.167 425 319L424 282.5C418.167 275.667 406 261.3 404 258.5C401.6 256.5 401.333 250.333 401.5 247.5V148.5Z" fill="#1976d2"/>
<path d="M376.5 371C380 369 395 358.5 402 353C406 360.2 425 363.5 434 363.5L452 362.5L470.5 361.5C477 361.5 487.3 373.4 482.5 383C476.5 395 463.5 398 448 399.5C432.5 401 407 399.5 388 396C369 392.5 372.382 373.353 376.5 371Z" fill="#1976d2"/>
<path d="M83.5 370.5C92.3 403.7 72.8333 407.333 62 405L33 366.5C5.5 325.5 1.50001 264 1.50001 258.5C-1.99999 212.5 8.00001 184.5 20.5 147C44 101 62 81.5 82 61.5C129.5 15.5 180 8 199.5 3C231.9 6.6 221.333 27.1667 212 37L180 46.5C83 84.5 63 147.5 52.5 176C26 260 49 302 52.5 313.5C56 325 71.5 355.5 83.5 370.5Z" fill="#1976d2"/>
<path d="M82.5 216H74.5V192.5L82 168C88 151.6 111.167 124.167 122 112.5C138.833 99.1667 186.2 74.1 241 80.5C309.5 88.5 349 142 357.5 157C366 172 377.5 186.5 374 248C371.2 297.2 318.5 343.333 293.5 356C309.333 370.333 344.1 401.3 356.5 410.5C368.9 419.7 394 422 405 422H439.5C469.1 438.8 451.833 459 439.5 467C436.667 468.167 427.7 470.5 414.5 470.5C385.3 476.5 347.667 459 332.5 449.5C300 423.167 232.2 368.7 221 361.5C203.8 340.3 218.167 329 227.5 326H246.5C332.517 304.123 332.503 241.702 332.5 229.206L332.5 229C328 127.5 234.5 124.5 232.5 124.5C186 120.5 161.5 145.5 160 145.5C105.2 144.3 85.5 192 82.5 216Z" fill="#1976d2"/>
<path d="M117.5 456V210C118.667 201.167 125.7 184.2 144.5 187C163.3 189.8 168.667 203.5 169 210V456C167.333 462.833 160.1 477.1 144.5 479.5C128.9 481.9 120 464.833 117.5 456Z" fill="#1976d2"/>
<path d="M198.5 457C202.5 441.4 218 441.833 225.5 444.5L241.5 446.5H276.5C283.5 447.5 287.5 453.5 292.5 457.5C297.738 461.691 299.5 466.5 299 474C298.6 480 286 484 280 484L257 484.5L234.5 484L214.5 480C202 477.5 198.167 465.167 198.5 457Z" fill="#1976d2"/>
<path d="M261.5 15.5C264.645 1.3456 273 -1.85668e-05 275 0.499981C277.5 0.499981 285.2 0.899984 296 2.49999C309.5 4.5 307 4.49999 329 10.5C344.5 13.5 382.167 33 398 43L437 75.5C441 79 441.4 91.3 437 98.5C432.6 105.7 421.167 105.5 416 104.5C413.5 102.833 407 98.3 401 93.5C395 87.5 359.5 64.5 342.5 56.5C330.1 48.5 298.667 41.1667 284.5 38.5C274.333 36.3333 258.5 29 261.5 15.5Z" fill="#1976d2"/>
</svg>
