<svg width="2794" height="2799" viewBox="0 0 2794 2799" fill="none" xmlns="http://www.w3.org/2000/svg">
<path d="M2044.88 1150.49C2036.56 1129.2 2006.41 1089.1 1985.82 1074.95L2013.18 1109.17C2014.37 1110.66 2014.13 1112.82 2012.64 1114C2011.16 1115.19 2009 1114.95 2007.81 1113.46L1972.96 1069.86C1971.1 1070 1969.53 1070.78 1968.34 1072.32C1967.96 1072.81 1967.63 1073.31 1967.33 1073.82L2002.44 1117.76C2003.63 1119.24 2003.39 1121.4 2001.91 1122.58C2000.42 1123.77 1998.26 1123.53 1997.08 1122.05L1965.59 1082.65C1967.24 1099.34 1991.27 1123.13 2012.4 1146.39C2038.42 1175.01 2047.6 1186.37 2047.6 1186.37C2047.6 1186.37 2176.82 1340 2179.26 1342.77C2213.9 1382.1 2209.74 1335.08 2148.64 1279.84C2087.55 1224.6 2056.31 1179.78 2044.88 1150.49Z" fill="url(#paint0_linear_1_19)"/>
<path d="M1466.62 1175.31L1306.98 1148.75L1211.52 1205.92L1050.6 1153.09C1050.6 1153.09 908.614 1171.91 905.527 1170.92L1057.46 2586.25C1098.32 2608.62 1150.66 2625.54 1216.85 2628.15C1277.38 2630.55 1332.15 2626.69 1379.77 2619.84C1425.2 2514.83 1558.8 2191.3 1632.95 1855.64C1723.25 1446.89 1466.62 1175.31 1466.62 1175.31Z" fill="url(#paint1_linear_1_19)"/>
<path d="M1605.4 1267.48C1605.52 1263.2 1647.1 1194.2 1647.1 1194.2C1647.1 1194.2 1759.86 1245.23 1860 1491.69C1960.14 1738.15 1971.84 1977.51 1933.8 2053.16C1895.76 2128.82 1644.25 1978.86 1594.43 1873.87C1544.6 1768.88 1605.4 1267.48 1605.4 1267.48Z" fill="url(#paint2_linear_1_19)"/>
<path d="M1766.01 1679.05C1731.37 1526.31 1647.1 1194.2 1647.1 1194.2L1351.53 1155.57C1351.53 1155.57 1598.28 1536.11 1570.35 1855.65C1546.55 2127.92 1396.34 2514.83 1352.42 2623.34C1388.01 2619.36 1420.15 2613.58 1448.31 2607.14C1500.54 2476.42 1798.03 1820.21 1766.01 1679.05Z" fill="url(#paint3_linear_1_19)"/>
<path d="M1069.35 899.64C1069.35 899.64 1047.99 1120.72 1041.38 1157.75L1220.16 1226.78L1310.86 1166.53L1258.98 928.861L1069.35 899.64Z" fill="url(#paint4_linear_1_19)"/>
<path d="M1255.31 726.376C1258.27 728.571 1277.69 870.637 1276.03 894.344C1274.37 918.05 1299.39 971.456 1299.39 971.456C1299.39 971.456 1219.86 1017.55 1177.61 1009.5C1135.37 1001.45 1070.26 911.466 1058.55 877.082C1046.85 842.698 1120.11 762.956 1120.11 762.956L1255.31 726.376Z" fill="url(#paint5_linear_1_19)"/>
<path d="M1070.08 959.463C1070.08 959.463 1104.09 1074.81 1113.42 1078.75C1188.53 1110.46 1288.16 1131.15 1318.52 1073.91C1337.32 1038.47 1321.59 986.195 1287.45 942.773C1281.91 948.413 1240.14 989.616 1184.38 982.43C1127.33 975.077 1078.83 920.047 1075.55 849.257C1075.55 849.257 1068.28 831.094 1087.19 824.094C1106.1 817.093 1199.59 768.078 1221.25 769.541C1242.91 771.004 1270.31 780.268 1282.95 780.025C1295.58 779.783 1327.81 759.298 1324.5 717.598C1321.19 675.898 1286.49 672.24 1286.49 672.24C1292.17 670.307 1323.67 658.987 1338.02 626.15C1353.13 591.55 1343.64 545.824 1320.46 534.702C1302.02 525.856 1283.38 542.961 1193.72 604.199C1117.13 656.515 1078.83 682.673 1060.26 693.931C990.239 736.397 961.35 745.283 947.353 781.245C934.338 814.684 943.948 846.48 946.859 856.112C970.694 934.977 1063.77 958.004 1070.08 959.463Z" fill="url(#paint6_linear_1_19)"/>
<path d="M1067.54 928.557C1067.54 928.557 1056 899.03 1039.35 907.077C1022.71 915.124 1056.66 959.751 1080.65 967.067L1067.54 928.557Z" fill="url(#paint7_linear_1_19)"/>
<path d="M1591.54 1526.45C1591.54 1526.45 1616.3 1406.01 1616.69 1401.63C1617 1398.21 1476.93 1229.34 1414.47 1158.03L1332.27 1140.9C1332.27 1140.9 1589.6 1536.11 1561.68 1855.65C1544.51 2052.02 1470.26 2308.03 1408.89 2476.21C1667.7 1948.69 1699.77 1627.4 1699.77 1627.4L1591.54 1526.45Z" fill="url(#paint8_linear_1_19)"/>
<path d="M1197.27 1272.68L1157.53 1188.19C1157.53 1188.19 1201.18 1166.35 1266.45 1184.43L1246.1 1265.36C1244.44 1276.96 1235.17 1285.97 1223.54 1287.31C1212.55 1288.58 1201.98 1282.69 1197.27 1272.68Z" fill="url(#paint9_linear_1_19)"/>
<path d="M1236.27 1165.04L1316.47 1278.46L1351.53 1155.57L1310.86 1109.94L1236.27 1165.04Z" fill="white"/>
<path d="M1038.41 1117.37L1012.91 1158.03L1131.84 1285.04L1181.84 1170.92L1038.41 1117.37Z" fill="white"/>
<path d="M1121.99 2409.68C1119.17 2477.89 1114.05 2544.41 1106.21 2607.87C1043.06 2585.81 1000.04 2549.66 972.28 2517.78C930.223 2314.27 842.4 1926 730.216 1631.5C703.827 1562.24 676.066 1498.19 647.271 1442.94C624.733 1399.65 622.429 1348.62 641.156 1303.58C659.916 1258.5 697.643 1224.07 744.235 1209.6C823.469 1184.97 917.957 1162.98 1012.89 1158.03C1012.89 1158.03 1145.66 1841.86 1121.99 2409.68Z" fill="url(#paint10_linear_1_19)"/>
<path d="M1117.87 2476.21C1117.87 2476.21 1218.65 1451.42 1012.91 1158.03L929.557 1394.77L1034.92 1526.45L958.882 1653.74C958.882 1653.74 1135.95 1974.97 1117.87 2476.21Z" fill="url(#paint11_linear_1_19)"/>
<path d="M2104.61 1459.18C2104.61 1459.18 2171.09 1399 2179.74 1348.6C2188.39 1298.19 2163.71 1256.7 2156.81 1258.29C2149.91 1259.87 2109.62 1266.35 2110.55 1299.47C2111.48 1332.59 2098.04 1378 2088.69 1394.7C2079.34 1411.4 2069.86 1452.45 2069.86 1452.45L2104.61 1459.18Z" fill="url(#paint12_linear_1_19)"/>
<path d="M2125.2 1459.81L2049.62 1439.05C2006.49 1507.51 1971.53 1565.87 1945.99 1609.38C1842.14 1786.24 1803.73 1871.23 1806.89 1963.73C1807.77 1989.61 1810.36 2044.66 1846.07 2065.73C1851.31 2068.83 1867.65 2077.32 1900.44 2071.99C1971.61 2060.42 2018.07 2000.33 2033.6 1980.25C2098.57 1896.24 2136.77 1704.41 2125.2 1459.81Z" fill="url(#paint13_linear_1_19)"/>
<path d="M2024.06 1068.35C2001.73 1117.31 1930.43 1125.77 1930.43 1125.77C1923.6 1125.29 1918.37 1122.61 1914.46 1122.61H1914.42C1913.25 1122.61 1911.98 1121.2 1910.68 1120.3C1910.68 1120.3 1910.64 1120.3 1910.64 1120.27L1913.39 1116.87L1974.86 1040.45C1986.54 1034.13 2003.14 1029.04 2015.03 1030.59C2015.37 1029.25 2015.78 1028.46 2016.3 1026.91C2017.12 1027.29 2017.91 1027.67 2018.63 1028.12C2028.08 1033.58 2029.46 1043.58 2029.46 1043.58H2029.42C2030.56 1047.02 2029.18 1057.19 2024.06 1068.35Z" fill="url(#paint14_linear_1_19)"/>
<path d="M2017.19 1060.76C1994.86 1109.72 1923.56 1118.31 1923.56 1118.31C1919.68 1118.04 1916.31 1117.55 1913.39 1116.87L1974.86 1040.45L1986.41 1026.12C1997.71 1022.89 2009.29 1022.07 2016.3 1026.33C2023.82 1030.87 2026.09 1041.24 2017.19 1060.76Z" fill="url(#paint15_linear_1_19)"/>
<path opacity="0.3" d="M1121.98 2409.68C1119.17 2477.89 1114.05 2544.41 1106.21 2607.87C1043.06 2585.81 1000.04 2549.66 972.28 2517.78C930.223 2314.27 842.4 1926 730.216 1631.5C739.425 1615.87 752.652 1620.41 770.966 1651.88C770.966 1651.88 788.834 1754.31 859.855 1788.36C930.842 1822.41 1007.98 1990.53 988.875 2097.73C971.181 2197.24 1100.89 2312.96 1121.98 2409.68Z" fill="url(#paint16_linear_1_19)"/>
<path d="M1244.15 1272.13L1200.54 1277.22C1200.54 1277.22 1208.4 1876.6 1215.49 1910.96C1222.59 1945.32 1280.56 2103.84 1304.36 2119.86C1328.16 2135.88 1417.66 1993.58 1439.31 1913.41C1460.96 1833.23 1244.15 1272.13 1244.15 1272.13Z" fill="url(#paint17_linear_1_19)"/>
<path d="M18.329 2723.25L0.714966 2655.79L1435.62 2561.35L2793.28 2662.12L2766.13 2742.02L18.329 2723.25Z" fill="url(#paint18_linear_1_19)"/>
<path d="M288.021 2297.55C298.406 2297.12 2674.82 2307.18 2674.82 2307.18L2793.28 2668.68L0.714966 2662.34L288.021 2297.55Z" fill="url(#paint19_linear_1_19)"/>
<path opacity="0.5" d="M2674.82 2307.18C2674.82 2307.18 298.405 2297.12 288.021 2297.55L247.552 2348.94C374.543 2453.39 485.332 2489.83 561.48 2504.35C808.848 2551.49 928.807 2412.78 1236.48 2441.44C1430.56 2459.52 1403.6 2516.65 1593.01 2541.35C1992.96 2593.51 2160.14 2344.92 2416.85 2422.94C2498.61 2447.78 2601.18 2509.35 2701.5 2668.47L2793.28 2668.68L2674.82 2307.18Z" fill="url(#paint20_linear_1_19)"/>
<path d="M2394.85 2555.07C2348.8 2568.1 2295.14 2576 2222.98 2576.24V2579.06H2205.8V2576.24C1793.49 2575.15 1827.08 2296.06 1827.08 2296.06C1831.28 2321.42 1866.33 2338.02 1914.01 2348.79C2008.86 2370.25 2154.26 2368.74 2205.8 2367.35V2366.72C2205.8 2366.72 2208.13 2366.86 2214.39 2367.08C2220.66 2366.86 2222.98 2366.72 2222.98 2366.72V2367.35C2302.01 2369.42 2589.35 2371.84 2601.93 2296.06C2601.93 2296.06 2625.75 2489.84 2394.85 2555.07Z" fill="url(#paint21_linear_1_19)"/>
<path opacity="0.6" d="M2394.85 2555.07C2348.8 2568.1 2295.14 2576 2222.98 2576.24V2579.06H2205.8V2576.24C1793.49 2575.15 1827.08 2296.06 1827.08 2296.06C1831.28 2321.42 1866.34 2338.02 1914.02 2348.79C1935.77 2368.67 1955.63 2393.38 1970.32 2424.03C2032.42 2553.7 2282.13 2390.18 2372.76 2523.76C2380.6 2535.33 2387.64 2545.74 2394.85 2555.07Z" fill="url(#paint22_linear_1_19)"/>
<path d="M2214.26 2384.99C2429.66 2384.99 2604.27 2348.45 2604.27 2303.37C2604.27 2258.29 2429.66 2221.74 2214.26 2221.74C1998.86 2221.74 1824.24 2258.29 1824.24 2303.37C1824.24 2348.45 1998.86 2384.99 2214.26 2384.99Z" fill="url(#paint23_linear_1_19)"/>
<path opacity="0.9" d="M2221.24 2370.37C2432.42 2370.37 2603.61 2336.86 2603.61 2295.53C2603.61 2254.19 2432.42 2220.68 2221.24 2220.68C2010.06 2220.68 1838.86 2254.19 1838.86 2295.53C1838.86 2336.86 2010.06 2370.37 2221.24 2370.37Z" fill="url(#paint24_linear_1_19)"/>
<mask id="mask0_1_19" style="mask-type:luminance" maskUnits="userSpaceOnUse" x="1831" y="2104" width="795" height="267">
<path d="M2625.89 2240.2L2604.27 2180.7L2394.41 2104.9H2176.88L1839.39 2211.31L1832.7 2282.74C1831.94 2284.83 1831.55 2286.78 1831.55 2288.92C1831.55 2334 2004.38 2370.46 2217.58 2370.46C2430.78 2370.46 2603.61 2333.87 2603.61 2288.79C2628.86 2270.52 2625.89 2240.2 2625.89 2240.2Z" fill="white"/>
</mask>
<g mask="url(#mask0_1_19)">
<path d="M2304.43 2382.37C2293.04 2374.65 2301.06 2331.93 2323.39 2300.58C2355.05 2256.15 2416.84 2232.65 2431.46 2227.45C2447.38 2221.79 2461.46 2218.58 2473.6 2204.76C2491.11 2184.82 2491.56 2157.62 2498.58 2157.94C2503.82 2158.18 2501.98 2173.27 2512.26 2179.23C2526.47 2187.46 2545.41 2167.61 2559.82 2176.84C2566.03 2180.82 2568.01 2188.06 2568.21 2188.81C2571.5 2201.54 2559.35 2210.54 2562.84 2216.69C2566.68 2223.46 2582.4 2214.32 2595.55 2221.38C2610.19 2229.24 2618.32 2255.38 2610.25 2272.33C2600.48 2292.83 2571.1 2291.27 2569.37 2306.25C2568.1 2317.34 2583.81 2321.73 2585.03 2333.67C2586.87 2351.71 2554.59 2376.9 2519.21 2385.3C2447.54 2402.31 2404.32 2340.62 2343.02 2366.02C2323 2374.32 2311.88 2387.42 2304.43 2382.37Z" fill="url(#paint25_linear_1_19)"/>
<path opacity="0.3" d="M2373.67 2341.67C2405.62 2337.47 2418.12 2364.91 2467.79 2369.89C2509.14 2374.03 2552.78 2360.26 2556.04 2342.34C2558.15 2330.71 2541.76 2325.41 2542.85 2310.15C2544.46 2287.56 2581.78 2280.33 2580.24 2264.8C2578.86 2251 2548.88 2251.82 2541.43 2230.74C2535.79 2214.77 2548.74 2202.23 2541.86 2194.74C2533.45 2185.59 2512.11 2202.12 2495.06 2193.79C2491.22 2191.92 2488.1 2189.02 2485.55 2185.42C2482.71 2191.88 2478.95 2198.66 2473.6 2204.75C2461.45 2218.58 2447.37 2221.79 2431.46 2227.45C2416.84 2232.65 2355.05 2256.15 2323.39 2300.58C2301.06 2331.93 2293.04 2374.65 2304.43 2382.37C2308.8 2385.33 2314.42 2382.05 2322.36 2377.17C2341.66 2351.51 2359.61 2343.52 2373.67 2341.67Z" fill="url(#paint26_linear_1_19)"/>
<path d="M2302.12 2408.34C2284.66 2399.13 2239.89 2372.28 2221.96 2319.79C2192.71 2234.18 2253.21 2134.02 2295.78 2131.45C2310.16 2130.58 2322.19 2140.86 2347.66 2135.72C2365.15 2132.18 2367.53 2125.71 2385.07 2124.09C2401.01 2122.63 2425.08 2125.59 2430.91 2138.64C2434.95 2147.69 2427.83 2156.25 2432.64 2160.72C2438.39 2166.05 2450.15 2155.31 2459.74 2158.66C2473.76 2163.57 2483.02 2198.62 2473.1 2224.74C2455.71 2270.51 2391.31 2257.52 2343.75 2306.33C2314.08 2336.77 2304.9 2376.96 2302.12 2408.34Z" fill="url(#paint27_linear_1_19)"/>
<path opacity="0.3" d="M2293.06 2393.18C2293.06 2393.18 2251.49 2324.92 2271.52 2254.76C2291.55 2184.6 2311.65 2194.1 2321 2189.78C2330.35 2185.46 2309.75 2215.61 2299.77 2238.77C2289.79 2261.94 2266.72 2282.6 2293.06 2393.18Z" fill="url(#paint28_linear_1_19)"/>
<path opacity="0.3" d="M2459.74 2158.66C2450.15 2155.31 2438.39 2166.05 2432.64 2160.72C2427.83 2156.25 2434.95 2147.69 2430.91 2138.64C2425.08 2125.59 2401.01 2122.63 2385.07 2124.09C2367.53 2125.7 2365.15 2132.18 2347.66 2135.72C2322.2 2140.86 2310.16 2130.58 2295.78 2131.45C2253.99 2133.97 2194.95 2230.52 2220.44 2315.05C2216.01 2282.78 2217.19 2244.06 2235.45 2207.72C2239.09 2200.49 2265.5 2147.93 2296.36 2149.85C2312.26 2150.85 2316.63 2165.5 2334.58 2165.5C2360.47 2165.51 2370.95 2135.05 2387.29 2139.32C2402.82 2143.38 2399.26 2172.41 2418.82 2179.7C2432.74 2184.89 2442.11 2173 2453.66 2176.51C2462.18 2179.09 2470.49 2189.62 2474.98 2218.83C2481.63 2193.62 2472.73 2163.21 2459.74 2158.66Z" fill="url(#paint29_linear_1_19)"/>
</g>
<mask id="mask1_1_19" style="mask-type:luminance" maskUnits="userSpaceOnUse" x="1831" y="2104" width="795" height="267">
<path d="M2625.89 2240.2L2604.27 2180.7L2394.41 2104.9H2176.88L1839.39 2211.31L1832.7 2282.74C1831.94 2284.83 1831.55 2286.78 1831.55 2288.92C1831.55 2334 2004.38 2370.46 2217.58 2370.46C2430.78 2370.46 2603.61 2333.87 2603.61 2288.79C2628.86 2270.52 2625.89 2240.2 2625.89 2240.2Z" fill="white"/>
</mask>
<g mask="url(#mask1_1_19)">
<path d="M2148.11 2407.59C2159.51 2399.87 2151.48 2357.15 2129.15 2325.81C2097.49 2281.37 2035.71 2257.87 2021.08 2252.67C2005.17 2247.01 1991.09 2243.8 1978.95 2229.98C1961.44 2210.04 1960.98 2182.84 1953.96 2183.16C1948.73 2183.4 1950.56 2198.49 1940.28 2204.45C1926.08 2212.68 1907.13 2192.83 1892.73 2202.06C1886.51 2206.05 1884.53 2213.28 1884.33 2214.03C1881.04 2226.76 1893.19 2235.76 1889.7 2241.91C1885.87 2248.68 1870.15 2239.54 1857 2246.6C1842.36 2254.46 1834.22 2280.6 1842.29 2297.55C1852.06 2318.05 1881.45 2316.49 1883.17 2331.47C1884.44 2342.56 1868.74 2346.95 1867.52 2358.89C1865.67 2376.93 1897.96 2402.12 1933.33 2410.52C2005 2427.53 2048.22 2365.84 2109.52 2391.24C2129.54 2399.54 2140.66 2412.64 2148.11 2407.59Z" fill="url(#paint30_linear_1_19)"/>
<path d="M2078.88 2366.89C2046.92 2362.69 2034.42 2390.13 1984.75 2395.11C1943.41 2399.25 1899.76 2385.48 1896.5 2367.56C1894.39 2355.93 1910.79 2350.63 1909.7 2335.38C1908.09 2312.78 1870.76 2305.55 1872.31 2290.02C1873.68 2276.22 1903.67 2277.04 1911.11 2255.96C1916.75 2240 1903.81 2227.46 1910.69 2219.97C1919.09 2210.81 1940.43 2227.34 1957.48 2219.01C1961.32 2217.14 1964.45 2214.24 1966.99 2210.64C1969.83 2217.1 1973.59 2223.88 1978.95 2229.98C1991.09 2243.8 2005.17 2247.01 2021.08 2252.67C2035.71 2257.87 2097.49 2281.37 2129.15 2325.8C2151.48 2357.15 2159.51 2399.87 2148.12 2407.59C2143.75 2410.55 2138.12 2407.28 2130.18 2402.39C2110.88 2376.73 2092.93 2368.74 2078.88 2366.89Z" fill="url(#paint31_linear_1_19)"/>
<path d="M2150.42 2433.57C2167.89 2424.35 2212.66 2397.5 2230.59 2345.01C2259.83 2259.4 2199.34 2159.24 2156.76 2156.67C2142.39 2155.8 2130.35 2166.08 2104.88 2160.94C2087.39 2157.41 2085.01 2150.93 2067.47 2149.32C2051.53 2147.85 2027.46 2150.81 2021.64 2163.86C2017.59 2172.91 2024.71 2181.47 2019.9 2185.94C2014.16 2191.28 2002.39 2180.53 1992.8 2183.89C1978.78 2188.8 1969.52 2223.84 1979.45 2249.96C1996.83 2295.73 2061.23 2282.74 2108.79 2331.55C2138.46 2361.99 2147.65 2402.18 2150.42 2433.57Z" fill="url(#paint32_linear_1_19)"/>
<path d="M2159.48 2418.4C2159.48 2418.4 2201.05 2350.14 2181.02 2279.98C2160.99 2209.82 2140.9 2219.33 2131.55 2215C2122.2 2210.68 2142.79 2240.83 2152.77 2264C2162.75 2287.16 2185.82 2307.82 2159.48 2418.4Z" fill="url(#paint33_linear_1_19)"/>
<path opacity="0.3" d="M1992.8 2183.89C2002.39 2180.53 2014.16 2191.28 2019.9 2185.94C2024.71 2181.47 2017.59 2172.91 2021.64 2163.86C2027.47 2150.81 2051.53 2147.85 2067.47 2149.32C2085.01 2150.93 2087.39 2157.4 2104.89 2160.94C2130.35 2166.08 2142.39 2155.8 2156.76 2156.67C2198.55 2159.19 2257.6 2255.75 2232.1 2340.27C2236.53 2308 2235.35 2269.28 2217.09 2232.94C2213.46 2225.71 2187.05 2173.15 2156.18 2175.08C2140.28 2176.07 2135.92 2190.72 2117.96 2190.73C2092.07 2190.73 2081.6 2160.27 2065.25 2164.54C2049.72 2168.6 2053.28 2197.63 2033.72 2204.92C2019.8 2210.11 2010.43 2198.22 1998.88 2201.73C1990.37 2204.31 1982.05 2214.85 1977.56 2244.05C1970.92 2218.84 1979.81 2188.43 1992.8 2183.89Z" fill="url(#paint34_linear_1_19)"/>
</g>
<mask id="mask2_1_19" style="mask-type:luminance" maskUnits="userSpaceOnUse" x="1831" y="2104" width="795" height="267">
<path d="M2625.89 2240.2L2604.27 2180.7L2394.41 2104.9H2176.88L1839.39 2211.31L1832.7 2282.74C1831.94 2284.83 1831.55 2286.78 1831.55 2288.92C1831.55 2334 2004.38 2370.46 2217.58 2370.46C2430.78 2370.46 2603.61 2333.87 2603.61 2288.79C2628.86 2270.52 2625.89 2240.2 2625.89 2240.2Z" fill="white"/>
</mask>
<g mask="url(#mask2_1_19)">
<path d="M2447.32 2146.22C2493.29 2187.34 2495.3 2260.09 2451.81 2308.71C2408.32 2357.34 2335.8 2363.43 2289.83 2322.31L2447.32 2146.22Z" fill="url(#paint35_linear_1_19)"/>
<path opacity="0.5" d="M2447.32 2146.22C2487.93 2182.54 2485.59 2251.4 2442.1 2300.03C2398.61 2348.66 2330.44 2358.63 2289.83 2322.31L2447.32 2146.22Z" fill="url(#paint36_linear_1_19)"/>
<path d="M2437.93 2156.72C2472.61 2187.74 2471.51 2249 2433.35 2291.66C2395.2 2334.33 2334.44 2342.23 2299.75 2311.21L2437.93 2156.72Z" fill="url(#paint37_linear_1_19)"/>
<path d="M2386.24 2221.82L2374.68 2234.75L2427.87 2282.32C2440.44 2267.42 2447.51 2251.57 2450.98 2235.79L2386.24 2221.82Z" fill="url(#paint38_linear_1_19)"/>
<path d="M2379 2314.86C2394.3 2310 2409.25 2301.63 2422.93 2287.71L2369.8 2240.2L2358.26 2253.1L2379 2314.86Z" fill="url(#paint39_linear_1_19)"/>
<path d="M2351.22 2260.98L2312.07 2304.75C2326.6 2317.74 2347.95 2321.88 2369.55 2317.32L2351.22 2260.98Z" fill="url(#paint40_linear_1_19)"/>
<path d="M2393.29 2213.94L2452.59 2226.16C2455.28 2203.47 2450.25 2183.15 2433.9 2168.53L2393.29 2213.94Z" fill="url(#paint41_linear_1_19)"/>
<g opacity="0.2">
<path d="M2386.24 2221.82L2374.68 2234.75L2427.87 2282.32C2440.44 2267.42 2447.51 2251.57 2450.98 2235.79L2386.24 2221.82Z" fill="url(#paint42_linear_1_19)"/>
<path d="M2379 2314.86C2394.3 2310 2409.25 2301.63 2422.93 2287.71L2369.8 2240.2L2358.26 2253.1L2379 2314.86Z" fill="url(#paint43_linear_1_19)"/>
<path d="M2351.22 2260.98L2312.07 2304.75C2326.6 2317.74 2347.95 2321.88 2369.55 2317.32L2351.22 2260.98Z" fill="url(#paint44_linear_1_19)"/>
<path d="M2393.29 2213.94L2452.59 2226.16C2455.28 2203.47 2450.25 2183.15 2433.9 2168.53L2393.29 2213.94Z" fill="url(#paint45_linear_1_19)"/>
</g>
</g>
<mask id="mask3_1_19" style="mask-type:luminance" maskUnits="userSpaceOnUse" x="1831" y="2104" width="795" height="267">
<path d="M2625.89 2240.2L2604.27 2180.7L2394.41 2104.9H2176.88L1839.39 2211.31L1832.7 2282.74C1831.94 2284.83 1831.55 2286.78 1831.55 2288.92C1831.55 2334 2004.38 2370.46 2217.58 2370.46C2430.78 2370.46 2603.61 2333.87 2603.61 2288.79C2628.86 2270.52 2625.89 2240.2 2625.89 2240.2Z" fill="white"/>
</mask>
<g mask="url(#mask3_1_19)">
<path d="M2188.61 2302.54C2154.48 2353.91 2082.75 2366.28 2028.42 2330.18C1974.08 2294.07 1957.71 2223.16 1991.84 2171.79L2188.61 2302.54Z" fill="url(#paint46_linear_1_19)"/>
<path opacity="0.5" d="M2188.61 2302.54C2158.46 2347.92 2089.97 2355.43 2035.63 2319.33C1981.29 2283.22 1961.69 2217.17 1991.84 2171.79L2188.61 2302.54Z" fill="url(#paint47_linear_1_19)"/>
<path d="M2176.88 2294.75C2151.13 2333.5 2090.33 2341.15 2042.66 2309.47C1994.99 2277.8 1978.49 2218.79 2004.25 2180.03L2176.88 2294.75Z" fill="url(#paint48_linear_1_19)"/>
<path d="M2105.06 2252.87L2090.62 2243.27L2051.12 2302.71C2067.67 2313.03 2084.36 2317.76 2100.48 2318.94L2105.06 2252.87Z" fill="url(#paint49_linear_1_19)"/>
<path d="M2011.94 2258.98C2018.94 2273.44 2029.35 2287.04 2045.08 2298.59L2084.53 2239.23L2070.11 2229.65L2011.94 2258.98Z" fill="url(#paint50_linear_1_19)"/>
<path d="M2061.31 2223.8L2012.4 2191.3C2001.61 2207.54 2000.56 2229.25 2008.16 2249.99L2061.31 2223.8Z" fill="url(#paint51_linear_1_19)"/>
<path d="M2113.87 2258.72L2110.24 2319.16C2133.09 2318.59 2152.48 2310.71 2164.61 2292.45L2113.87 2258.72Z" fill="url(#paint52_linear_1_19)"/>
<g opacity="0.2">
<path d="M2105.06 2252.87L2090.62 2243.27L2051.12 2302.71C2067.67 2313.03 2084.36 2317.76 2100.48 2318.94L2105.06 2252.87Z" fill="url(#paint53_linear_1_19)"/>
<path d="M2011.94 2258.98C2018.94 2273.44 2029.35 2287.04 2045.08 2298.59L2084.53 2239.23L2070.11 2229.65L2011.94 2258.98Z" fill="url(#paint54_linear_1_19)"/>
<path d="M2061.31 2223.8L2012.4 2191.3C2001.61 2207.54 2000.56 2229.25 2008.16 2249.99L2061.31 2223.8Z" fill="url(#paint55_linear_1_19)"/>
<path d="M2113.87 2258.72L2110.24 2319.16C2133.09 2318.59 2152.48 2310.71 2164.61 2292.45L2113.87 2258.72Z" fill="url(#paint56_linear_1_19)"/>
</g>
</g>
<mask id="mask4_1_19" style="mask-type:luminance" maskUnits="userSpaceOnUse" x="1831" y="2104" width="795" height="267">
<path d="M2625.89 2240.2L2604.27 2180.7L2394.41 2104.9H2176.88L1839.39 2211.31L1832.7 2282.74C1831.94 2284.83 1831.55 2286.78 1831.55 2288.92C1831.55 2334 2004.38 2370.46 2217.58 2370.46C2430.78 2370.46 2603.61 2333.87 2603.61 2288.79C2628.86 2270.52 2625.89 2240.2 2625.89 2240.2Z" fill="white"/>
</mask>
<g mask="url(#mask4_1_19)">
<path d="M2373.64 2443.83C2385.03 2436.11 2377 2393.39 2354.67 2362.05C2323.02 2317.62 2261.23 2294.12 2246.6 2288.91C2230.69 2283.25 2216.61 2280.04 2204.47 2266.22C2186.96 2246.28 2186.5 2219.08 2179.49 2219.4C2174.25 2219.64 2176.09 2234.73 2165.8 2240.69C2151.6 2248.92 2132.65 2229.07 2118.25 2238.3C2112.03 2242.29 2110.05 2249.53 2109.86 2250.28C2106.56 2263 2118.71 2272 2115.23 2278.15C2111.39 2284.92 2095.67 2275.78 2082.52 2282.84C2067.88 2290.7 2059.74 2316.84 2067.82 2333.79C2077.58 2354.3 2106.97 2352.73 2108.69 2367.71C2109.97 2378.81 2094.26 2383.19 2093.04 2395.13C2091.2 2413.17 2123.48 2438.36 2158.85 2446.76C2230.52 2463.77 2273.74 2402.08 2335.04 2427.49C2355.07 2435.78 2366.18 2448.89 2373.64 2443.83Z" fill="url(#paint57_linear_1_19)"/>
<path d="M2304.4 2403.13C2272.44 2398.93 2259.94 2426.38 2210.28 2431.35C2168.93 2435.5 2125.28 2421.72 2122.03 2403.81C2119.91 2392.17 2136.31 2386.87 2135.22 2371.62C2133.61 2349.02 2096.28 2341.8 2097.83 2326.27C2099.21 2312.46 2129.19 2313.28 2136.63 2292.21C2142.27 2276.24 2129.33 2263.7 2136.21 2256.21C2144.62 2247.06 2165.95 2263.58 2183 2255.26C2186.84 2253.38 2189.97 2250.49 2192.52 2246.88C2195.36 2253.35 2199.11 2260.12 2204.47 2266.22C2216.61 2280.04 2230.69 2283.25 2246.6 2288.91C2261.23 2294.11 2323.02 2317.62 2354.67 2362.05C2377 2393.39 2385.03 2436.11 2373.64 2443.83C2369.27 2446.79 2363.64 2443.52 2355.71 2438.63C2336.4 2412.97 2318.46 2404.98 2304.4 2403.13Z" fill="url(#paint58_linear_1_19)"/>
</g>
<mask id="mask5_1_19" style="mask-type:luminance" maskUnits="userSpaceOnUse" x="1831" y="2104" width="795" height="267">
<path d="M2625.89 2240.2L2604.27 2180.7L2394.41 2104.9H2176.88L1839.39 2211.31L1832.7 2282.74C1831.94 2284.83 1831.55 2286.78 1831.55 2288.92C1831.55 2334 2004.38 2370.46 2217.58 2370.46C2430.78 2370.46 2603.61 2333.87 2603.61 2288.79C2628.86 2270.52 2625.89 2240.2 2625.89 2240.2Z" fill="white"/>
</mask>
<g mask="url(#mask5_1_19)">
<path d="M2276.5 2386.54C2271.61 2395.34 2264.91 2403.42 2256.45 2410.4C2213.76 2445.6 2152.25 2430.88 2119.08 2377.51C2097.93 2343.47 2089.17 2305.41 2093.33 2275.96C2095.68 2259.24 2102.2 2245.27 2112.98 2236.39C2142.77 2211.82 2204.26 2226.56 2250.34 2269.28C2287.26 2303.55 2296.35 2350.94 2276.5 2386.54Z" fill="url(#paint59_linear_1_19)"/>
<path d="M2230.65 2299.16C2248.64 2320.98 2245.34 2353.4 2223.28 2371.58C2201.23 2389.77 2168.77 2386.83 2150.79 2365.01C2132.8 2343.2 2136.1 2310.78 2158.15 2292.59C2180.21 2274.41 2212.67 2277.35 2230.65 2299.16Z" fill="url(#paint60_linear_1_19)"/>
<path opacity="0.1" d="M2276.5 2386.54C2271.61 2395.34 2264.91 2403.42 2256.45 2410.4C2213.76 2445.6 2152.25 2430.88 2119.08 2377.51C2097.93 2343.47 2089.17 2305.41 2093.33 2275.96C2098.29 2305.72 2111.88 2350.54 2148.95 2362.64C2154.17 2364.33 2159.87 2365.38 2166.07 2365.67C2186.96 2366.57 2207.07 2367.93 2224.68 2370.37C2247.41 2373.51 2265.95 2378.44 2276.5 2386.54Z" fill="url(#paint61_linear_1_19)"/>
</g>
<path d="M1236.11 2598.35C1535.79 2598.35 1778.73 2529.51 1778.73 2444.59C1778.73 2359.67 1535.79 2290.82 1236.11 2290.82C936.427 2290.82 693.487 2359.67 693.487 2444.59C693.487 2529.51 936.427 2598.35 1236.11 2598.35Z" fill="#D8DEE8"/>
<path opacity="0.3" d="M1236.11 2537.35C1475.43 2537.35 1669.44 2493.83 1669.44 2440.14C1669.44 2386.45 1475.43 2342.93 1236.11 2342.93C996.784 2342.93 802.774 2386.45 802.774 2440.14C802.774 2493.83 996.784 2537.35 1236.11 2537.35Z" fill="#D8DEE8"/>
<path d="M1236.11 2537.35C1483.15 2537.35 1683.42 2459.41 1683.42 2363.26C1683.42 2267.11 1483.15 2189.16 1236.11 2189.16C989.063 2189.16 788.794 2267.11 788.794 2363.26C788.794 2459.41 989.063 2537.35 1236.11 2537.35Z" fill="#AABBCC"/>
<path d="M1236.11 2496.69C1483.15 2496.69 1683.42 2427.85 1683.42 2342.93C1683.42 2258 1483.15 2189.16 1236.11 2189.16C989.063 2189.16 788.794 2258 788.794 2342.93C788.794 2427.85 989.063 2496.69 1236.11 2496.69Z" fill="url(#paint62_linear_1_19)"/>
<path d="M1146.14 2037.31C1146.14 2037.31 1541.28 2023 1576.05 2022.81C1610.81 2022.63 1547.38 2061.77 1503.37 2088.26C1459.37 2114.76 1306.56 2109.54 1262.43 2076.9C1218.29 2044.26 1166.42 2065.09 1166.42 2065.09C1166.42 2065.09 1147.02 2077.78 1091.98 2076.9C1036.93 2076.01 1092.71 2039.23 1146.14 2037.31Z" fill="url(#paint63_linear_1_19)"/>
<path d="M977.446 2037.31C977.446 2037.31 1051.54 2042.9 1074.05 2027.04C1096.56 2011.18 1127.96 2005.04 1142.61 2006.97C1157.26 2008.89 1166.87 2019.93 1176.93 2019.53C1186.98 2019.12 1218.17 2027.56 1225.51 2038.26C1232.85 2048.97 1182.46 2100.31 1154.97 2114.73C1127.48 2129.14 1074.9 2112.33 1060.31 2094.38C1045.71 2076.42 971.67 2076.9 971.67 2076.9L977.446 2037.31Z" fill="url(#paint64_linear_1_19)"/>
<path d="M775.441 1217.19C687.178 1176.58 471.606 1383.83 388.581 1627.61C360.683 1709.53 281.922 1940.8 403.542 2083.64C516.337 2216.12 769.072 2234.47 997.727 2092.33C1001.29 2069.16 1004.85 2046 1008.41 2022.84C982.994 2019.54 945.782 2013.77 901.546 2003.29C761.183 1970.06 690.859 1953.41 666.437 1907.75C619.97 1820.85 789.379 1721.84 822.465 1482.12C823.751 1472.79 852.467 1252.63 775.441 1217.19Z" fill="url(#paint65_linear_1_19)"/>
<path d="M1093.84 2339.3C1099.85 2335.23 1095.62 2312.67 1083.82 2296.12C1067.11 2272.65 1034.48 2260.24 1026.75 2257.5C1018.35 2254.51 1010.92 2252.81 1004.5 2245.51C995.257 2234.98 995.015 2220.62 991.31 2220.79C988.544 2220.92 989.514 2228.88 984.085 2232.03C976.584 2236.38 966.577 2225.89 958.972 2230.77C955.688 2232.87 954.643 2236.7 954.54 2237.09C952.8 2243.81 959.216 2248.57 957.375 2251.81C955.348 2255.39 947.048 2250.56 940.103 2254.29C932.371 2258.44 928.077 2272.24 932.34 2281.19C937.498 2292.02 953.015 2291.19 953.924 2299.11C954.597 2304.96 946.303 2307.28 945.659 2313.58C944.686 2323.11 961.733 2336.42 980.413 2340.85C1018.26 2349.84 1041.08 2317.26 1073.45 2330.67C1084.03 2335.05 1089.9 2341.97 1093.84 2339.3Z" fill="url(#paint66_linear_1_19)"/>
<path d="M1057.27 2317.81C1040.4 2315.59 1033.8 2330.09 1007.57 2332.71C985.737 2334.9 962.687 2327.63 960.968 2318.17C959.852 2312.02 968.509 2309.22 967.935 2301.17C967.084 2289.24 947.372 2285.42 948.19 2277.22C948.917 2269.93 964.749 2270.36 968.681 2259.24C971.66 2250.8 964.824 2244.18 968.457 2240.23C972.896 2235.39 984.164 2244.12 993.167 2239.72C995.195 2238.73 996.846 2237.2 998.191 2235.3C999.691 2238.71 1001.68 2242.29 1004.5 2245.51C1010.92 2252.81 1018.35 2254.51 1026.75 2257.5C1034.48 2260.24 1067.11 2272.65 1083.82 2296.12C1095.61 2312.67 1099.85 2335.23 1093.84 2339.3C1091.53 2340.87 1088.56 2339.14 1084.37 2336.56C1074.17 2323.01 1064.7 2318.79 1057.27 2317.81Z" fill="url(#paint67_linear_1_19)"/>
<path d="M1095.05 2353.02C1104.28 2348.16 1127.92 2333.98 1137.39 2306.26C1152.83 2261.05 1120.88 2208.16 1098.4 2206.8C1090.81 2206.34 1084.45 2211.77 1071.01 2209.05C1061.77 2207.19 1060.51 2203.77 1051.25 2202.92C1042.83 2202.15 1030.12 2203.71 1027.05 2210.6C1024.91 2215.37 1028.67 2219.9 1026.13 2222.26C1023.1 2225.07 1016.88 2219.4 1011.82 2221.17C1004.41 2223.77 999.527 2242.27 1004.77 2256.07C1013.95 2280.24 1047.95 2273.38 1073.07 2299.15C1088.74 2315.22 1093.59 2336.45 1095.05 2353.02Z" fill="url(#paint68_linear_1_19)"/>
<path d="M1099.84 2345.01C1099.84 2345.01 1121.79 2308.96 1111.21 2271.92C1100.63 2234.87 1090.02 2239.88 1085.09 2237.6C1080.15 2235.32 1091.03 2251.24 1096.3 2263.48C1101.56 2275.71 1113.75 2286.62 1099.84 2345.01Z" fill="url(#paint69_linear_1_19)"/>
<path opacity="0.3" d="M1011.82 2221.17C1016.88 2219.4 1023.1 2225.07 1026.13 2222.25C1028.67 2219.9 1024.91 2215.37 1027.05 2210.59C1030.13 2203.7 1042.83 2202.14 1051.25 2202.92C1060.52 2203.77 1061.77 2207.19 1071.01 2209.05C1084.46 2211.77 1090.81 2206.34 1098.4 2206.8C1120.47 2208.13 1151.65 2259.12 1138.19 2303.75C1140.53 2286.71 1139.9 2266.26 1130.26 2247.08C1128.34 2243.25 1114.39 2215.5 1098.1 2216.52C1089.7 2217.04 1087.39 2224.78 1077.91 2224.78C1064.24 2224.79 1058.71 2208.7 1050.08 2210.96C1041.88 2213.1 1043.76 2228.43 1033.43 2232.28C1026.08 2235.02 1021.13 2228.74 1015.03 2230.59C1010.53 2231.96 1006.14 2237.52 1003.77 2252.94C1000.26 2239.63 1004.96 2223.57 1011.82 2221.17Z" fill="url(#paint70_linear_1_19)"/>
<path d="M1351.53 2314.89C1351.53 2314.89 1101.17 2251.3 1036.06 2290.82C970.94 2330.35 969.266 2417.31 1098.95 2419.35C1228.64 2421.4 1386.69 2397.62 1386.69 2397.62V2363.26L1351.53 2314.89Z" fill="url(#paint71_linear_1_19)"/>
<path d="M1351.53 2280.53C1351.53 2280.53 1101.17 2251.3 1036.06 2290.82C970.94 2330.35 969.266 2382.95 1098.95 2384.99C1228.64 2387.04 1386.69 2363.26 1386.69 2363.26L1351.53 2280.53Z" fill="#0C6CBC"/>
<g opacity="0.5">
<path d="M1129.46 2292.04C1126.41 2289.78 1122.11 2290.43 1119.85 2293.48L1078.99 2348.73C1076.73 2351.78 1077.38 2356.09 1080.43 2358.34C1083.48 2360.6 1087.78 2359.96 1090.04 2356.9L1130.9 2301.65C1133.16 2298.6 1132.51 2294.3 1129.46 2292.04Z" fill="url(#paint72_linear_1_19)"/>
<path d="M1187.87 2288.61C1184.82 2286.35 1180.52 2286.99 1178.26 2290.04L1137.4 2345.3C1135.14 2348.35 1135.79 2352.65 1138.84 2354.91C1141.89 2357.17 1146.19 2356.52 1148.45 2353.47L1189.31 2298.22C1191.57 2295.17 1190.92 2290.86 1187.87 2288.61Z" fill="url(#paint73_linear_1_19)"/>
<path d="M1246.28 2285.17C1243.23 2282.91 1238.93 2283.56 1236.67 2286.61L1195.81 2341.86C1193.55 2344.91 1194.2 2349.22 1197.25 2351.47C1200.3 2353.73 1204.61 2353.08 1206.86 2350.03L1247.72 2294.78C1249.98 2291.73 1249.33 2287.43 1246.28 2285.17Z" fill="url(#paint74_linear_1_19)"/>
<path d="M1304.69 2281.73C1301.64 2279.48 1297.34 2280.12 1295.08 2283.17L1254.22 2338.42C1251.97 2341.48 1252.61 2345.78 1255.66 2348.04C1258.71 2350.29 1263.02 2349.65 1265.27 2346.6L1306.13 2291.35C1308.39 2288.29 1307.74 2283.99 1304.69 2281.73Z" fill="url(#paint75_linear_1_19)"/>
</g>
<path d="M2563 691.358C2563 705.207 2539.15 724.193 2525.31 723.955L1462.42 705.632C1448.86 705.398 1438.23 693.592 1438.23 679.889V344.362C1438.23 330.659 1457.65 307.129 1471.22 307.312L2525.49 334.336C2539.33 334.524 2550.47 346.03 2550.47 359.877L2563 691.358Z" fill="#BFC8D6"/>
<path d="M1595.42 695.726L1749.89 693.085L1608.24 854.422C1604.75 858.385 1599.6 858.037 1594.39 858.073C1578.77 858.182 1580.44 844.18 1580.74 838.93L1595.42 695.726Z" fill="#BFC8D6"/>
<path d="M2558.35 684.761C2558.35 698.61 2550.02 709.644 2536.18 709.408L1475.09 691.241C1461.53 691.009 1451.97 679.709 1451.97 666.004V331.504C1451.97 317.799 1462.97 306.838 1476.54 307.02L2536.17 321.331C2550.01 321.517 2558.35 332.895 2558.35 346.744V684.761Z" fill="white"/>
<path d="M1605.77 681.273L1760.28 678.653L1618.6 840.781C1615.1 844.744 1609.55 846.763 1604.74 844.826C1599.93 842.889 1596.91 837.087 1597.22 831.838L1605.77 681.273Z" fill="white"/>
<path d="M1599.62 417.765L1621.77 462.637C1622.59 464.3 1624.16 465.461 1625.98 465.742L1674.94 473.326C1679.51 474.034 1681.37 479.708 1678.08 482.928L1642.9 517.422C1641.6 518.7 1641.01 520.552 1641.33 522.375L1650 571.59C1650.81 576.182 1646.06 579.633 1641.97 577.43L1598.1 553.825C1596.47 552.951 1594.54 552.933 1592.92 553.777L1549.39 576.551C1545.33 578.675 1540.54 575.137 1541.29 570.564L1549.32 521.549C1549.62 519.733 1549.01 517.872 1547.69 516.572L1512.15 481.5C1508.84 478.229 1510.62 472.595 1515.17 471.966L1563.93 465.218C1565.74 464.968 1567.3 463.834 1568.1 462.186L1589.66 417.686C1591.67 413.533 1597.56 413.58 1599.62 417.765Z" fill="url(#paint76_linear_1_19)"/>
<path d="M1601.79 417.783L1623.94 462.656C1624.76 464.319 1626.33 465.48 1628.15 465.761L1677.11 473.345C1681.68 474.053 1683.54 479.727 1680.25 482.947L1645.07 517.442C1643.77 518.72 1643.19 520.572 1643.51 522.395L1652.18 571.611C1652.98 576.203 1648.24 579.654 1644.14 577.451L1600.26 553.846C1598.64 552.972 1596.71 552.954 1595.09 553.798L1551.55 576.572C1547.49 578.696 1542.71 575.158 1543.46 570.585L1551.48 521.569C1551.78 519.753 1551.17 517.892 1549.86 516.592L1514.32 481.52C1511 478.249 1512.79 472.615 1517.33 471.985L1566.1 465.237C1567.91 464.987 1569.47 463.853 1570.27 462.204L1591.83 417.703C1593.84 413.55 1599.73 413.597 1601.79 417.783Z" fill="url(#paint77_linear_1_19)"/>
<g opacity="0.3">
<path d="M1632.04 543.323C1615.16 527.071 1596.27 527.798 1588.53 509.131C1579.85 488.217 1597.95 473.785 1594.67 448.189C1593.88 441.989 1591.8 434.9 1587.23 427.175L1570.26 462.204C1569.46 463.852 1567.91 464.987 1566.1 465.237L1517.33 471.985C1512.78 472.614 1511 478.248 1514.32 481.519L1549.85 516.592C1551.17 517.892 1551.78 519.753 1551.48 521.569L1543.46 570.585C1542.71 575.158 1547.49 578.696 1551.55 576.572L1595.09 553.798C1596.7 552.954 1598.64 552.972 1600.26 553.846L1644.14 577.452C1646.52 578.734 1649.12 578.1 1650.72 576.443C1646.28 560.364 1639.13 550.147 1632.04 543.323Z" fill="url(#paint78_linear_1_19)"/>
</g>
<path d="M1802.9 420.712L1825.13 465.67C1825.96 467.336 1827.54 468.499 1829.36 468.781L1878.5 476.381C1883.09 477.091 1884.96 482.776 1881.66 486.001L1846.35 520.561C1845.04 521.841 1844.45 523.697 1844.77 525.523L1853.48 574.833C1854.29 579.434 1849.52 582.891 1845.41 580.684L1801.37 557.033C1799.74 556.157 1797.8 556.139 1796.18 556.985L1752.47 579.801C1748.4 581.929 1743.6 578.384 1744.35 573.802L1752.4 524.693C1752.7 522.873 1752.09 521.009 1750.77 519.706L1715.1 484.566C1711.77 481.289 1713.56 475.644 1718.12 475.013L1767.08 468.253C1768.89 468.002 1770.45 466.866 1771.25 465.215L1792.9 420.63C1794.92 416.472 1800.83 416.519 1802.9 420.712Z" fill="url(#paint79_linear_1_19)"/>
<path d="M1805.08 420.73L1827.31 465.69C1828.14 467.356 1829.71 468.519 1831.53 468.801L1880.68 476.401C1885.27 477.111 1887.14 482.796 1883.84 486.022L1848.53 520.582C1847.22 521.862 1846.63 523.718 1846.95 525.545L1855.66 574.856C1856.47 579.457 1851.7 582.915 1847.59 580.707L1803.55 557.055C1801.92 556.179 1799.97 556.161 1798.35 557.007L1754.65 579.823C1750.57 581.951 1745.77 578.406 1746.52 573.824L1754.58 524.714C1754.88 522.894 1754.27 521.029 1752.94 519.727L1717.27 484.587C1713.94 481.31 1715.73 475.665 1720.3 475.034L1769.25 468.274C1771.06 468.023 1772.63 466.887 1773.43 465.236L1795.07 420.65C1797.09 416.489 1803.01 416.536 1805.08 420.73Z" fill="url(#paint80_linear_1_19)"/>
<g opacity="0.3">
<path d="M1835.45 546.511C1818.5 530.228 1799.54 530.955 1791.76 512.252C1783.05 491.298 1801.22 476.839 1797.93 451.194C1797.13 444.982 1795.05 437.88 1790.47 430.14L1773.43 465.236C1772.63 466.888 1771.07 468.024 1769.25 468.275L1720.3 475.035C1715.73 475.665 1713.94 481.31 1717.27 484.587L1752.95 519.728C1754.27 521.03 1754.88 522.895 1754.58 524.715L1746.52 573.825C1745.77 578.406 1750.57 581.951 1754.65 579.824L1798.36 557.007C1799.98 556.162 1801.92 556.18 1803.55 557.055L1847.59 580.707C1849.98 581.991 1852.59 581.356 1854.2 579.696C1849.74 563.586 1842.57 553.349 1835.45 546.511Z" fill="url(#paint81_linear_1_19)"/>
</g>
<path d="M2006.96 423.671L2029.28 468.717C2030.11 470.386 2031.69 471.552 2033.52 471.834L2082.85 479.45C2087.46 480.161 2089.33 485.857 2086.02 489.089L2050.58 523.714C2049.26 524.996 2048.67 526.856 2049 528.686L2057.73 578.091C2058.55 582.701 2053.76 586.165 2049.64 583.953L2005.43 560.255C2003.79 559.377 2001.84 559.359 2000.21 560.206L1956.34 583.064C1952.25 585.196 1947.43 581.644 1948.18 577.054L1956.27 527.851C1956.57 526.028 1955.96 524.159 1954.63 522.855L1918.82 487.647C1915.48 484.363 1917.28 478.708 1921.86 478.076L1971 471.305C1972.82 471.054 1974.39 469.916 1975.19 468.261L1996.92 423.591C1998.95 419.422 2004.88 419.469 2006.96 423.671Z" fill="url(#paint82_linear_1_19)"/>
<path d="M2009.15 423.688L2031.47 468.734C2032.29 470.403 2033.88 471.569 2035.71 471.851L2085.04 479.467C2089.65 480.178 2091.52 485.874 2088.22 489.106L2052.76 523.732C2051.45 525.014 2050.86 526.874 2051.18 528.704L2059.92 578.11C2060.73 582.72 2055.95 586.184 2051.82 583.972L2007.61 560.273C2005.97 559.395 2004.02 559.377 2002.4 560.225L1958.52 583.084C1954.43 585.216 1949.61 581.664 1950.37 577.074L1958.46 527.87C1958.76 526.047 1958.14 524.178 1956.81 522.873L1921 487.664C1917.66 484.38 1919.46 478.724 1924.04 478.093L1973.18 471.322C1975.01 471.071 1976.57 469.933 1977.38 468.278L1999.11 423.608C2001.13 419.439 2007.07 419.486 2009.15 423.688Z" fill="url(#paint83_linear_1_19)"/>
<g opacity="0.3">
<path d="M2039.63 549.712C2022.62 533.397 2003.59 534.125 1995.78 515.386C1987.04 494.392 2005.28 479.905 2001.97 454.21C2001.17 447.986 1999.08 440.87 1994.48 433.115L1977.38 468.278C1976.57 469.933 1975 471.071 1973.18 471.322L1924.04 478.093C1919.46 478.724 1917.66 484.38 1921 487.664L1956.81 522.873C1958.14 524.178 1958.75 526.047 1958.45 527.87L1950.36 577.074C1949.61 581.664 1954.43 585.216 1958.52 583.084L2002.39 560.225C2004.02 559.378 2005.97 559.396 2007.61 560.274L2051.82 583.973C2054.22 585.26 2056.84 584.624 2058.46 582.96C2053.98 566.82 2046.78 556.563 2039.63 549.712Z" fill="url(#paint84_linear_1_19)"/>
</g>
<path d="M2211.81 426.64L2234.21 471.773C2235.04 473.446 2236.63 474.613 2238.47 474.896L2287.99 482.528C2292.62 483.241 2294.5 488.948 2291.18 492.186L2255.59 526.876C2254.27 528.161 2253.68 530.024 2254 531.857L2262.77 581.357C2263.59 585.976 2258.79 589.446 2254.65 587.23L2210.26 563.485C2208.62 562.606 2206.66 562.587 2205.03 563.436L2160.99 586.337C2156.88 588.473 2152.05 584.914 2152.8 580.315L2160.92 531.018C2161.22 529.191 2160.61 527.319 2159.27 526.012L2123.33 490.735C2119.97 487.445 2121.78 481.779 2126.38 481.146L2175.71 474.363C2177.54 474.112 2179.11 472.971 2179.92 471.313L2201.73 426.558C2203.76 422.383 2209.72 422.43 2211.81 426.64Z" fill="url(#paint85_linear_1_19)"/>
<path d="M2214 426.658L2236.41 471.792C2237.24 473.465 2238.83 474.632 2240.66 474.915L2290.19 482.547C2294.81 483.26 2296.69 488.967 2293.37 492.205L2257.79 526.896C2256.47 528.181 2255.87 530.044 2256.2 531.878L2264.97 581.38C2265.79 585.999 2260.98 589.469 2256.84 587.253L2212.46 563.507C2210.81 562.628 2208.86 562.609 2207.23 563.458L2163.18 586.36C2159.08 588.496 2154.24 584.937 2154.99 580.338L2163.11 531.04C2163.41 529.213 2162.8 527.341 2161.47 526.034L2125.52 490.756C2122.16 487.466 2123.97 481.799 2128.57 481.167L2177.9 474.384C2179.73 474.133 2181.3 472.992 2182.11 471.334L2203.92 426.578C2205.96 422.4 2211.91 422.448 2214 426.658Z" fill="url(#paint86_linear_1_19)"/>
<g opacity="0.3">
<path d="M2244.61 552.925C2227.53 536.578 2208.42 537.307 2200.58 518.531C2191.81 497.496 2210.12 482.982 2206.8 457.238C2206 451.002 2203.89 443.873 2199.28 436.102L2182.11 471.332C2181.3 472.99 2179.73 474.13 2177.9 474.382L2128.57 481.165C2123.97 481.798 2122.17 487.464 2125.52 490.754L2161.47 526.032C2162.8 527.339 2163.41 529.212 2163.11 531.038L2154.99 580.336C2154.24 584.935 2159.08 588.494 2163.18 586.358L2207.23 563.456C2208.86 562.607 2210.81 562.625 2212.46 563.505L2256.84 587.251C2259.25 588.54 2261.88 587.903 2263.5 586.237C2259.01 570.067 2251.78 559.79 2244.61 552.925Z" fill="url(#paint87_linear_1_19)"/>
</g>
<path d="M2416.33 426.64L2438.73 471.773C2439.56 473.446 2441.15 474.613 2442.98 474.896L2492.51 482.528C2497.13 483.241 2499.02 488.948 2495.69 492.186L2460.11 526.876C2458.79 528.161 2458.2 530.024 2458.52 531.857L2467.29 581.357C2468.11 585.976 2463.31 589.446 2459.16 587.23L2414.78 563.485C2413.14 562.606 2411.18 562.587 2409.55 563.436L2365.51 586.337C2361.4 588.473 2356.56 584.914 2357.32 580.315L2365.44 531.018C2365.74 529.191 2365.12 527.319 2363.79 526.012L2327.85 490.735C2324.49 487.445 2326.29 481.779 2330.9 481.146L2380.23 474.363C2382.05 474.112 2383.63 472.971 2384.44 471.313L2406.25 426.558C2408.28 422.383 2414.24 422.43 2416.33 426.64Z" fill="url(#paint88_linear_1_19)"/>
<path d="M2418.52 426.658L2440.92 471.792C2441.75 473.465 2443.35 474.632 2445.18 474.915L2494.71 482.547C2499.33 483.26 2501.21 488.967 2497.89 492.205L2462.3 526.896C2460.99 528.181 2460.39 530.044 2460.72 531.878L2469.49 581.38C2470.31 585.999 2465.5 589.469 2461.36 587.253L2416.98 563.507C2415.33 562.628 2413.38 562.609 2411.74 563.458L2367.7 586.36C2363.59 588.496 2358.76 584.937 2359.51 580.338L2367.63 531.04C2367.93 529.213 2367.32 527.341 2365.98 526.034L2330.03 490.756C2326.68 487.466 2328.48 481.799 2333.09 481.167L2382.42 474.384C2384.25 474.133 2385.82 472.992 2386.63 471.334L2408.44 426.578C2410.48 422.4 2416.43 422.448 2418.52 426.658Z" fill="url(#paint89_linear_1_19)"/>
<g opacity="0.3">
<path d="M2449.12 552.925C2432.05 536.578 2412.94 537.307 2405.1 518.531C2396.33 497.496 2414.64 482.982 2411.32 457.238C2410.52 451.002 2408.41 443.873 2403.8 436.102L2386.63 471.332C2385.82 472.99 2384.25 474.13 2382.42 474.382L2333.09 481.165C2328.48 481.798 2326.68 487.464 2330.04 490.754L2365.98 526.032C2367.32 527.339 2367.93 529.212 2367.63 531.038L2359.51 580.336C2358.76 584.935 2363.59 588.494 2367.7 586.358L2411.74 563.456C2413.38 562.607 2415.33 562.625 2416.98 563.505L2461.36 587.251C2463.77 588.54 2466.4 587.903 2468.02 586.237C2463.52 570.067 2456.3 559.79 2449.12 552.925Z" fill="url(#paint90_linear_1_19)"/>
</g>
<path d="M1908.59 1041.03C1906.83 1041.03 1905.12 1040.06 1904.28 1038.38L1904 1037.84C1891.11 1012.85 1898.53 990.706 1907.02 976.533C1923.95 948.259 1909.82 918.221 1889.52 902.277C1864.23 882.4 1887.16 833.249 1888.14 831.167C1889.29 828.76 1892.16 827.738 1894.58 828.874C1896.99 830.019 1898.02 832.898 1896.88 835.311C1891.07 847.568 1879.52 882.128 1895.5 894.677C1919.76 913.745 1934.36 949.689 1915.31 981.499C1904.8 999.054 1903.88 1016.52 1912.59 1033.42L1912.9 1034.02C1914.1 1036.4 1913.15 1039.3 1910.77 1040.51C1910.07 1040.86 1909.33 1041.03 1908.59 1041.03Z" fill="#BFC8D6"/>
<path d="M1953.69 1005.59C1951.93 1005.59 1950.23 1004.62 1949.38 1002.94L1949.1 1002.41C1936.22 977.411 1943.63 955.269 1952.12 941.095C1969.05 912.821 1954.92 882.783 1934.63 866.839C1909.33 846.962 1932.26 797.811 1933.25 795.729C1934.39 793.322 1937.26 792.3 1939.68 793.436C1942.09 794.581 1943.12 797.46 1941.98 799.873C1936.18 812.13 1924.62 846.689 1940.6 859.239C1964.86 878.307 1979.46 914.251 1960.41 946.061C1949.9 963.616 1948.98 981.083 1957.69 997.977L1958 998.578C1959.21 1000.96 1958.25 1003.87 1955.87 1005.07C1955.17 1005.43 1954.43 1005.59 1953.69 1005.59Z" fill="#BFC8D6"/>
<path d="M2008.46 995.928C2006.7 995.928 2004.99 994.959 2004.15 993.279L2003.87 992.741C1990.98 967.746 1998.4 945.603 2006.89 931.43C2023.82 903.156 2009.69 873.118 1989.39 857.174C1964.1 837.297 1987.02 788.146 1988.01 786.064C1989.15 783.657 1992.03 782.635 1994.45 783.77C1996.86 784.915 1997.89 787.794 1996.75 790.207C1990.95 802.464 1979.39 837.024 1995.37 849.573C2019.63 868.641 2034.23 904.585 2015.18 936.395C2004.67 953.95 2003.75 971.417 2012.46 988.311L2012.77 988.912C2013.97 991.294 2013.02 994.201 2010.64 995.406C2009.94 995.761 2009.19 995.928 2008.46 995.928Z" fill="#BFC8D6"/>
<defs>
<linearGradient id="paint0_linear_1_19" x1="2071.5" y1="1224.45" x2="2095.87" y2="1204.97" gradientUnits="userSpaceOnUse">
<stop stop-color="#AA80F9"/>
<stop offset="0.9964" stop-color="#6165D7"/>
</linearGradient>
<linearGradient id="paint1_linear_1_19" x1="905.527" y1="1888.81" x2="1652.21" y2="1888.81" gradientUnits="userSpaceOnUse">
<stop offset="0.494" stop-color="#EBEFF2"/>
<stop offset="1" stop-color="white"/>
</linearGradient>
<linearGradient id="paint2_linear_1_19" x1="1767.03" y1="1838.08" x2="1632.42" y2="989.449" gradientUnits="userSpaceOnUse">
<stop stop-color="#3C9EEF"/>
<stop offset="1" stop-color="#26264F"/>
</linearGradient>
<linearGradient id="paint3_linear_1_19" x1="1515.95" y1="1877.91" x2="1381.34" y2="1029.27" gradientUnits="userSpaceOnUse">
<stop stop-color="#3C9EEF"/>
<stop offset="1" stop-color="#26264F"/>
</linearGradient>
<linearGradient id="paint4_linear_1_19" x1="1173.44" y1="1233.38" x2="1191" y2="766.628" gradientUnits="userSpaceOnUse">
<stop stop-color="#FFC444"/>
<stop offset="0.9964" stop-color="#F36F56"/>
</linearGradient>
<linearGradient id="paint5_linear_1_19" x1="1224" y1="908.676" x2="1019.16" y2="592.633" gradientUnits="userSpaceOnUse">
<stop stop-color="#FFC444"/>
<stop offset="0.9964" stop-color="#F36F56"/>
</linearGradient>
<linearGradient id="paint6_linear_1_19" x1="1409.57" y1="685.236" x2="935.505" y2="1094.92" gradientUnits="userSpaceOnUse">
<stop stop-color="#444B8C"/>
<stop offset="0.9964" stop-color="#26264F"/>
</linearGradient>
<linearGradient id="paint7_linear_1_19" x1="1090.68" y1="900.858" x2="929.728" y2="1088.14" gradientUnits="userSpaceOnUse">
<stop stop-color="#FFC444"/>
<stop offset="0.9964" stop-color="#F36F56"/>
</linearGradient>
<linearGradient id="paint8_linear_1_19" x1="1752.13" y1="1650.2" x2="1258.56" y2="1855.04" gradientUnits="userSpaceOnUse">
<stop stop-color="#3C9EEF"/>
<stop offset="1" stop-color="#444B8C"/>
</linearGradient>
<linearGradient id="paint9_linear_1_19" x1="1158.02" y1="1290.81" x2="585.369" y2="2095.61" gradientUnits="userSpaceOnUse">
<stop stop-color="#444B8C"/>
<stop offset="0.9964" stop-color="#26264F"/>
</linearGradient>
<linearGradient id="paint10_linear_1_19" x1="845.004" y1="-268.905" x2="886.231" y2="2426.45" gradientUnits="userSpaceOnUse">
<stop stop-color="#3C9EEF"/>
<stop offset="1" stop-color="#3C9EEF"/>
</linearGradient>
<linearGradient id="paint11_linear_1_19" x1="1043.86" y1="1832.09" x2="1383.32" y2="1596.04" gradientUnits="userSpaceOnUse">
<stop stop-color="#3C9EEF"/>
<stop offset="1" stop-color="#444B8C"/>
</linearGradient>
<linearGradient id="paint12_linear_1_19" x1="2207.7" y1="1278.9" x2="1964.31" y2="1503.86" gradientUnits="userSpaceOnUse">
<stop stop-color="#FFC444"/>
<stop offset="0.9964" stop-color="#F36F56"/>
</linearGradient>
<linearGradient id="paint13_linear_1_19" x1="1886.3" y1="1494.6" x2="2064.47" y2="2018.44" gradientUnits="userSpaceOnUse">
<stop stop-color="#3C9EEF"/>
<stop offset="1" stop-color="#444B8C"/>
</linearGradient>
<linearGradient id="paint14_linear_1_19" x1="1910.64" y1="1076.34" x2="2029.79" y2="1076.34" gradientUnits="userSpaceOnUse">
<stop stop-color="#AB316D"/>
<stop offset="1" stop-color="#792D3D"/>
</linearGradient>
<linearGradient id="paint15_linear_1_19" x1="1985.61" y1="1050.93" x2="1922.69" y2="1168.69" gradientUnits="userSpaceOnUse">
<stop stop-color="#AB316D"/>
<stop offset="1" stop-color="#792D3D"/>
</linearGradient>
<linearGradient id="paint16_linear_1_19" x1="581.183" y1="1243.5" x2="975.27" y2="2241.85" gradientUnits="userSpaceOnUse">
<stop stop-color="#311944"/>
<stop offset="1" stop-color="#A03976"/>
</linearGradient>
<linearGradient id="paint17_linear_1_19" x1="1200.54" y1="1696.62" x2="1440.83" y2="1696.62" gradientUnits="userSpaceOnUse">
<stop stop-color="#444B8C"/>
<stop offset="0.9964" stop-color="#26264F"/>
</linearGradient>
<linearGradient id="paint18_linear_1_19" x1="1349.49" y1="3134.07" x2="1395.87" y2="2670.24" gradientUnits="userSpaceOnUse">
<stop stop-color="#FFC444"/>
<stop offset="0.9964" stop-color="#F36F56"/>
</linearGradient>
<linearGradient id="paint19_linear_1_19" x1="1591.36" y1="2225.74" x2="1081.15" y2="3380.16" gradientUnits="userSpaceOnUse">
<stop stop-color="#FFC444"/>
<stop offset="0.9964" stop-color="#F36F56"/>
</linearGradient>
<linearGradient id="paint20_linear_1_19" x1="1636.67" y1="2245.76" x2="1126.46" y2="3400.19" gradientUnits="userSpaceOnUse">
<stop stop-color="#FFC444"/>
<stop offset="0.9964" stop-color="#F36F56"/>
</linearGradient>
<linearGradient id="paint21_linear_1_19" x1="1826.42" y1="2437.56" x2="2602.63" y2="2437.56" gradientUnits="userSpaceOnUse">
<stop offset="0.0036" stop-color="#EBEFF2"/>
<stop offset="1" stop-color="white"/>
</linearGradient>
<linearGradient id="paint22_linear_1_19" x1="2045.31" y1="1801.73" x2="2113.87" y2="2470.22" gradientUnits="userSpaceOnUse">
<stop stop-color="white"/>
<stop offset="0.9964" stop-color="#EBEFF2"/>
</linearGradient>
<linearGradient id="paint23_linear_1_19" x1="2178.23" y1="1952.1" x2="2216.59" y2="2326.1" gradientUnits="userSpaceOnUse">
<stop offset="0.0036" stop-color="#EBEFF2"/>
<stop offset="1" stop-color="white"/>
</linearGradient>
<linearGradient id="paint24_linear_1_19" x1="2187.75" y1="1969.01" x2="2223.41" y2="2316.66" gradientUnits="userSpaceOnUse">
<stop stop-color="white"/>
<stop offset="0.9964" stop-color="#EBEFF2"/>
</linearGradient>
<linearGradient id="paint25_linear_1_19" x1="2590.92" y1="2092.82" x2="2282.44" y2="2606.04" gradientUnits="userSpaceOnUse">
<stop offset="0.0036" stop-color="#E38DDD"/>
<stop offset="1" stop-color="#9571F6"/>
</linearGradient>
<linearGradient id="paint26_linear_1_19" x1="2290.13" y1="2344" x2="2576.45" y2="2252.3" gradientUnits="userSpaceOnUse">
<stop offset="0.0036" stop-color="#E38DDD"/>
<stop offset="1" stop-color="#9571F6"/>
</linearGradient>
<linearGradient id="paint27_linear_1_19" x1="2214.45" y1="2296.45" x2="2484.12" y2="2210.08" gradientUnits="userSpaceOnUse">
<stop offset="0.0036" stop-color="#E38DDD"/>
<stop offset="1" stop-color="#9571F6"/>
</linearGradient>
<linearGradient id="paint28_linear_1_19" x1="2284.01" y1="2316.78" x2="2312.8" y2="2199.59" gradientUnits="userSpaceOnUse">
<stop offset="0.0036" stop-color="#E38DDD"/>
<stop offset="1" stop-color="#9571F6"/>
</linearGradient>
<linearGradient id="paint29_linear_1_19" x1="2381.07" y1="2092.9" x2="2340.82" y2="2249.25" gradientUnits="userSpaceOnUse">
<stop offset="0.0036" stop-color="#E38DDD"/>
<stop offset="1" stop-color="#9571F6"/>
</linearGradient>
<linearGradient id="paint30_linear_1_19" x1="1861.62" y1="2118.04" x2="2170.1" y2="2631.26" gradientUnits="userSpaceOnUse">
<stop offset="0.0036" stop-color="#E38DDD"/>
<stop offset="1" stop-color="#9571F6"/>
</linearGradient>
<linearGradient id="paint31_linear_1_19" x1="2162.42" y1="2369.23" x2="1876.1" y2="2277.52" gradientUnits="userSpaceOnUse">
<stop offset="0.0036" stop-color="#E38DDD"/>
<stop offset="1" stop-color="#9571F6"/>
</linearGradient>
<linearGradient id="paint32_linear_1_19" x1="2238.09" y1="2321.67" x2="1968.42" y2="2235.3" gradientUnits="userSpaceOnUse">
<stop offset="0.0036" stop-color="#E38DDD"/>
<stop offset="1" stop-color="#9571F6"/>
</linearGradient>
<linearGradient id="paint33_linear_1_19" x1="2168.53" y1="2342" x2="2139.74" y2="2224.81" gradientUnits="userSpaceOnUse">
<stop offset="0.0036" stop-color="#E38DDD"/>
<stop offset="1" stop-color="#9571F6"/>
</linearGradient>
<linearGradient id="paint34_linear_1_19" x1="2071.47" y1="2118.12" x2="2111.72" y2="2274.47" gradientUnits="userSpaceOnUse">
<stop offset="0.0036" stop-color="#E38DDD"/>
<stop offset="1" stop-color="#9571F6"/>
</linearGradient>
<linearGradient id="paint35_linear_1_19" x1="2489.27" y1="2207.6" x2="2290.9" y2="2324.14" gradientUnits="userSpaceOnUse">
<stop stop-color="#FF9085"/>
<stop offset="1" stop-color="#FB6FBB"/>
</linearGradient>
<linearGradient id="paint36_linear_1_19" x1="2485.37" y1="2203.12" x2="2287.94" y2="2319.11" gradientUnits="userSpaceOnUse">
<stop stop-color="#FF9085"/>
<stop offset="1" stop-color="#FB6FBB"/>
</linearGradient>
<linearGradient id="paint37_linear_1_19" x1="2471.16" y1="2206.64" x2="2298.07" y2="2308.34" gradientUnits="userSpaceOnUse">
<stop offset="0.0036" stop-color="#EBEFF2"/>
<stop offset="1" stop-color="white"/>
</linearGradient>
<linearGradient id="paint38_linear_1_19" x1="2446.82" y1="2228.71" x2="2390.55" y2="2261.77" gradientUnits="userSpaceOnUse">
<stop stop-color="#FF9085"/>
<stop offset="1" stop-color="#FB6FBB"/>
</linearGradient>
<linearGradient id="paint39_linear_1_19" x1="2406.71" y1="2260.1" x2="2362.19" y2="2286.25" gradientUnits="userSpaceOnUse">
<stop stop-color="#FF9085"/>
<stop offset="1" stop-color="#FB6FBB"/>
</linearGradient>
<linearGradient id="paint40_linear_1_19" x1="2365.87" y1="2285.93" x2="2317.65" y2="2314.25" gradientUnits="userSpaceOnUse">
<stop stop-color="#FF9085"/>
<stop offset="1" stop-color="#FB6FBB"/>
</linearGradient>
<linearGradient id="paint41_linear_1_19" x1="2451.26" y1="2192.64" x2="2398.86" y2="2223.42" gradientUnits="userSpaceOnUse">
<stop stop-color="#FF9085"/>
<stop offset="1" stop-color="#FB6FBB"/>
</linearGradient>
<linearGradient id="paint42_linear_1_19" x1="2446.82" y1="2228.71" x2="2390.55" y2="2261.77" gradientUnits="userSpaceOnUse">
<stop stop-color="#FF9085"/>
<stop offset="1" stop-color="#FB6FBB"/>
</linearGradient>
<linearGradient id="paint43_linear_1_19" x1="2406.71" y1="2260.1" x2="2362.19" y2="2286.25" gradientUnits="userSpaceOnUse">
<stop stop-color="#FF9085"/>
<stop offset="1" stop-color="#FB6FBB"/>
</linearGradient>
<linearGradient id="paint44_linear_1_19" x1="2365.87" y1="2285.93" x2="2317.65" y2="2314.25" gradientUnits="userSpaceOnUse">
<stop stop-color="#FF9085"/>
<stop offset="1" stop-color="#FB6FBB"/>
</linearGradient>
<linearGradient id="paint45_linear_1_19" x1="2451.26" y1="2192.64" x2="2398.86" y2="2223.42" gradientUnits="userSpaceOnUse">
<stop stop-color="#FF9085"/>
<stop offset="1" stop-color="#FB6FBB"/>
</linearGradient>
<linearGradient id="paint46_linear_1_19" x1="2133.84" y1="2352.82" x2="1990.19" y2="2173.11" gradientUnits="userSpaceOnUse">
<stop stop-color="#FF9085"/>
<stop offset="1" stop-color="#FB6FBB"/>
</linearGradient>
<linearGradient id="paint47_linear_1_19" x1="2137.72" y1="2348.32" x2="1994.75" y2="2169.47" gradientUnits="userSpaceOnUse">
<stop stop-color="#FF9085"/>
<stop offset="1" stop-color="#FB6FBB"/>
</linearGradient>
<linearGradient id="paint48_linear_1_19" x1="2132.2" y1="2334.76" x2="2006.85" y2="2177.95" gradientUnits="userSpaceOnUse">
<stop offset="0.0036" stop-color="#EBEFF2"/>
<stop offset="1" stop-color="white"/>
</linearGradient>
<linearGradient id="paint49_linear_1_19" x1="2106.89" y1="2313.82" x2="2066.14" y2="2262.84" gradientUnits="userSpaceOnUse">
<stop stop-color="#FF9085"/>
<stop offset="1" stop-color="#FB6FBB"/>
</linearGradient>
<linearGradient id="paint50_linear_1_19" x1="2070.1" y1="2278.59" x2="2037.86" y2="2238.26" gradientUnits="userSpaceOnUse">
<stop stop-color="#FF9085"/>
<stop offset="1" stop-color="#FB6FBB"/>
</linearGradient>
<linearGradient id="paint51_linear_1_19" x1="2038.71" y1="2241.86" x2="2003.79" y2="2198.18" gradientUnits="userSpaceOnUse">
<stop stop-color="#FF9085"/>
<stop offset="1" stop-color="#FB6FBB"/>
</linearGradient>
<linearGradient id="paint52_linear_1_19" x1="2143.23" y1="2313.06" x2="2105.28" y2="2265.59" gradientUnits="userSpaceOnUse">
<stop stop-color="#FF9085"/>
<stop offset="1" stop-color="#FB6FBB"/>
</linearGradient>
<linearGradient id="paint53_linear_1_19" x1="2106.89" y1="2313.82" x2="2066.14" y2="2262.84" gradientUnits="userSpaceOnUse">
<stop stop-color="#FF9085"/>
<stop offset="1" stop-color="#FB6FBB"/>
</linearGradient>
<linearGradient id="paint54_linear_1_19" x1="2070.1" y1="2278.59" x2="2037.86" y2="2238.26" gradientUnits="userSpaceOnUse">
<stop stop-color="#FF9085"/>
<stop offset="1" stop-color="#FB6FBB"/>
</linearGradient>
<linearGradient id="paint55_linear_1_19" x1="2038.71" y1="2241.86" x2="2003.79" y2="2198.18" gradientUnits="userSpaceOnUse">
<stop stop-color="#FF9085"/>
<stop offset="1" stop-color="#FB6FBB"/>
</linearGradient>
<linearGradient id="paint56_linear_1_19" x1="2143.23" y1="2313.06" x2="2105.28" y2="2265.59" gradientUnits="userSpaceOnUse">
<stop stop-color="#FF9085"/>
<stop offset="1" stop-color="#FB6FBB"/>
</linearGradient>
<linearGradient id="paint57_linear_1_19" x1="2087.14" y1="2154.29" x2="2395.63" y2="2667.5" gradientUnits="userSpaceOnUse">
<stop offset="0.0036" stop-color="#E38DDD"/>
<stop offset="1" stop-color="#9571F6"/>
</linearGradient>
<linearGradient id="paint58_linear_1_19" x1="2387.94" y1="2405.47" x2="2101.62" y2="2313.77" gradientUnits="userSpaceOnUse">
<stop offset="0.0036" stop-color="#E38DDD"/>
<stop offset="1" stop-color="#9571F6"/>
</linearGradient>
<linearGradient id="paint59_linear_1_19" x1="2287.87" y1="2350.05" x2="2086.44" y2="2307.77" gradientUnits="userSpaceOnUse">
<stop offset="0.0036" stop-color="#EBEFF2"/>
<stop offset="1" stop-color="white"/>
</linearGradient>
<linearGradient id="paint60_linear_1_19" x1="2241.04" y1="2342.65" x2="2140.4" y2="2321.53" gradientUnits="userSpaceOnUse">
<stop stop-color="#FFC444"/>
<stop offset="0.9964" stop-color="#F36F56"/>
</linearGradient>
<linearGradient id="paint61_linear_1_19" x1="2277.72" y1="2380.75" x2="2080.05" y2="2339.25" gradientUnits="userSpaceOnUse">
<stop stop-color="#FFC444"/>
<stop offset="0.9964" stop-color="#F36F56"/>
</linearGradient>
<linearGradient id="paint62_linear_1_19" x1="788.795" y1="2342.93" x2="1683.42" y2="2342.93" gradientUnits="userSpaceOnUse">
<stop offset="0.0036" stop-color="#EBEFF2"/>
<stop offset="1" stop-color="white"/>
</linearGradient>
<linearGradient id="paint63_linear_1_19" x1="1586.06" y1="2064" x2="1069.29" y2="2064" gradientUnits="userSpaceOnUse">
<stop stop-color="#AA80F9"/>
<stop offset="0.9964" stop-color="#6165D7"/>
</linearGradient>
<linearGradient id="paint64_linear_1_19" x1="1055.64" y1="1948.63" x2="1107.18" y2="2079.2" gradientUnits="userSpaceOnUse">
<stop stop-color="#FFC444"/>
<stop offset="0.9964" stop-color="#F36F56"/>
</linearGradient>
<linearGradient id="paint65_linear_1_19" x1="707.548" y1="-305.443" x2="666.321" y2="2389.94" gradientUnits="userSpaceOnUse">
<stop stop-color="#3C9EEF"/>
<stop offset="1" stop-color="#0C6CBC"/>
</linearGradient>
<linearGradient id="paint66_linear_1_19" x1="942.546" y1="2186.4" x2="1105.45" y2="2457.42" gradientUnits="userSpaceOnUse">
<stop offset="0.0036" stop-color="#E38DDD"/>
<stop offset="1" stop-color="#9571F6"/>
</linearGradient>
<linearGradient id="paint67_linear_1_19" x1="1101.39" y1="2319.04" x2="950.19" y2="2270.62" gradientUnits="userSpaceOnUse">
<stop offset="0.0036" stop-color="#E38DDD"/>
<stop offset="1" stop-color="#9571F6"/>
</linearGradient>
<linearGradient id="paint68_linear_1_19" x1="1141.35" y1="2293.93" x2="998.944" y2="2248.32" gradientUnits="userSpaceOnUse">
<stop offset="0.0036" stop-color="#E38DDD"/>
<stop offset="1" stop-color="#9571F6"/>
</linearGradient>
<linearGradient id="paint69_linear_1_19" x1="1104.62" y1="2304.67" x2="1089.42" y2="2242.78" gradientUnits="userSpaceOnUse">
<stop offset="0.0036" stop-color="#E38DDD"/>
<stop offset="1" stop-color="#9571F6"/>
</linearGradient>
<linearGradient id="paint70_linear_1_19" x1="1053.36" y1="2186.44" x2="1074.62" y2="2269" gradientUnits="userSpaceOnUse">
<stop offset="0.0036" stop-color="#E38DDD"/>
<stop offset="1" stop-color="#9571F6"/>
</linearGradient>
<linearGradient id="paint71_linear_1_19" x1="1280.57" y1="2165.08" x2="1176.78" y2="2399.9" gradientUnits="userSpaceOnUse">
<stop stop-color="#AB316D"/>
<stop offset="1" stop-color="#792D3D"/>
</linearGradient>
<linearGradient id="paint72_linear_1_19" x1="1109.97" y1="2313.82" x2="1070.71" y2="2402.64" gradientUnits="userSpaceOnUse">
<stop stop-color="#AB316D"/>
<stop offset="1" stop-color="#792D3D"/>
</linearGradient>
<linearGradient id="paint73_linear_1_19" x1="1168.38" y1="2310.38" x2="1129.13" y2="2399.2" gradientUnits="userSpaceOnUse">
<stop stop-color="#AB316D"/>
<stop offset="1" stop-color="#792D3D"/>
</linearGradient>
<linearGradient id="paint74_linear_1_19" x1="1226.79" y1="2306.95" x2="1187.54" y2="2395.77" gradientUnits="userSpaceOnUse">
<stop stop-color="#AB316D"/>
<stop offset="1" stop-color="#792D3D"/>
</linearGradient>
<linearGradient id="paint75_linear_1_19" x1="1285.2" y1="2303.51" x2="1245.95" y2="2392.33" gradientUnits="userSpaceOnUse">
<stop stop-color="#AB316D"/>
<stop offset="1" stop-color="#792D3D"/>
</linearGradient>
<linearGradient id="paint76_linear_1_19" x1="1510.57" y1="497.053" x2="1679.85" y2="495.97" gradientUnits="userSpaceOnUse">
<stop stop-color="#311944"/>
<stop offset="1" stop-color="#893976"/>
</linearGradient>
<linearGradient id="paint77_linear_1_19" x1="1647.4" y1="408.131" x2="1481.57" y2="706.547" gradientUnits="userSpaceOnUse">
<stop stop-color="#FFC444"/>
<stop offset="0.9964" stop-color="#F36F56"/>
</linearGradient>
<linearGradient id="paint78_linear_1_19" x1="1647.39" y1="407.956" x2="1481.44" y2="706.597" gradientUnits="userSpaceOnUse">
<stop stop-color="#FFC444"/>
<stop offset="0.9964" stop-color="#F36F56"/>
</linearGradient>
<linearGradient id="paint79_linear_1_19" x1="1713.51" y1="500.154" x2="1883.44" y2="499.067" gradientUnits="userSpaceOnUse">
<stop stop-color="#311944"/>
<stop offset="1" stop-color="#893976"/>
</linearGradient>
<linearGradient id="paint80_linear_1_19" x1="1850.75" y1="411.038" x2="1684.56" y2="710.112" gradientUnits="userSpaceOnUse">
<stop stop-color="#FFC444"/>
<stop offset="0.9964" stop-color="#F36F56"/>
</linearGradient>
<linearGradient id="paint81_linear_1_19" x1="1850.73" y1="410.869" x2="1684.42" y2="710.156" gradientUnits="userSpaceOnUse">
<stop stop-color="#FFC444"/>
<stop offset="0.9964" stop-color="#F36F56"/>
</linearGradient>
<linearGradient id="paint82_linear_1_19" x1="1917.22" y1="503.267" x2="2087.81" y2="502.175" gradientUnits="userSpaceOnUse">
<stop stop-color="#311944"/>
<stop offset="1" stop-color="#893976"/>
</linearGradient>
<linearGradient id="paint83_linear_1_19" x1="2054.88" y1="413.957" x2="1888.32" y2="713.691" gradientUnits="userSpaceOnUse">
<stop stop-color="#FFC444"/>
<stop offset="0.9964" stop-color="#F36F56"/>
</linearGradient>
<linearGradient id="paint84_linear_1_19" x1="2054.86" y1="413.794" x2="1888.19" y2="713.73" gradientUnits="userSpaceOnUse">
<stop stop-color="#FFC444"/>
<stop offset="0.9964" stop-color="#F36F56"/>
</linearGradient>
<linearGradient id="paint85_linear_1_19" x1="2121.72" y1="506.392" x2="2292.97" y2="505.296" gradientUnits="userSpaceOnUse">
<stop stop-color="#311944"/>
<stop offset="1" stop-color="#893976"/>
</linearGradient>
<linearGradient id="paint86_linear_1_19" x1="2259.8" y1="416.886" x2="2092.87" y2="717.284" gradientUnits="userSpaceOnUse">
<stop stop-color="#FFC444"/>
<stop offset="0.9964" stop-color="#F36F56"/>
</linearGradient>
<linearGradient id="paint87_linear_1_19" x1="2259.77" y1="416.73" x2="2092.74" y2="717.317" gradientUnits="userSpaceOnUse">
<stop stop-color="#FFC444"/>
<stop offset="0.9964" stop-color="#F36F56"/>
</linearGradient>
<linearGradient id="paint88_linear_1_19" x1="2326.24" y1="506.392" x2="2497.48" y2="505.296" gradientUnits="userSpaceOnUse">
<stop stop-color="#311944"/>
<stop offset="1" stop-color="#893976"/>
</linearGradient>
<linearGradient id="paint89_linear_1_19" x1="2464.32" y1="416.886" x2="2297.39" y2="717.284" gradientUnits="userSpaceOnUse">
<stop stop-color="#FFC444"/>
<stop offset="0.9964" stop-color="#F36F56"/>
</linearGradient>
<linearGradient id="paint90_linear_1_19" x1="2464.29" y1="416.73" x2="2297.26" y2="717.317" gradientUnits="userSpaceOnUse">
<stop stop-color="#FFC444"/>
<stop offset="0.9964" stop-color="#F36F56"/>
</linearGradient>
</defs>
</svg>
